<svg width="20" height="20" viewBox="0 0 20 20" xmlns="http://www.w3.org/2000/svg">
<g clip-path="url(#clip0_16_4)">
<path d="M14.0742 8.27586H18.4815V9.65517H14.0742V8.27586ZM14.0742 4.82759H21V6.2069H14.0742V4.82759ZM14.0742 1.37931H21V2.75862H14.0742V1.37931ZM9.03726 20H6.51879C6.18513 19.9989 5.86541 19.8532 5.62948 19.5948C5.39354 19.3364 5.26055 18.9862 5.25955 18.6207V13.7931C4.92589 13.792 4.60618 13.6463 4.37024 13.3879C4.1343 13.1295 4.00131 12.7793 4.00032 12.4138V8.27586C3.9957 8.00277 4.04141 7.73147 4.1347 7.47816C4.22799 7.22486 4.36695 6.99476 4.54327 6.80163C4.7196 6.60849 4.92966 6.45628 5.16092 6.35409C5.39217 6.25191 5.63985 6.20184 5.88917 6.2069H9.66688C9.9162 6.20184 10.1639 6.25191 10.3951 6.35409C10.6264 6.45628 10.8365 6.60849 11.0128 6.80163C11.1891 6.99476 11.3281 7.22486 11.4214 7.47816C11.5146 7.73147 11.5603 8.00277 11.5557 8.27586V12.4138C11.5547 12.7793 11.4217 13.1295 11.1858 13.3879C10.9499 13.6463 10.6302 13.792 10.2965 13.7931V18.6207C10.2955 18.9862 10.1625 19.3364 9.92657 19.5948C9.69064 19.8532 9.37092 19.9989 9.03726 20V20ZM5.88917 7.58621C5.80517 7.58068 5.72106 7.59473 5.64238 7.62743C5.5637 7.66013 5.49225 7.71074 5.43275 7.77592C5.37325 7.8411 5.32704 7.91936 5.29719 8.00554C5.26733 8.09172 5.2545 8.18385 5.25955 8.27586V12.4138H6.51879V18.6207H9.03726V12.4138H10.2965V8.27586C10.3015 8.18385 10.2887 8.09172 10.2589 8.00554C10.229 7.91936 10.1828 7.8411 10.1233 7.77592C10.0638 7.71074 9.99235 7.66013 9.91367 7.62743C9.83499 7.59473 9.75088 7.58068 9.66688 7.58621H5.88917ZM7.77802 5.51724C7.27992 5.51724 6.793 5.35545 6.37884 5.05233C5.96468 4.74921 5.64188 4.31837 5.45126 3.8143C5.26064 3.31023 5.21077 2.75556 5.30795 2.22044C5.40512 1.68532 5.64498 1.19378 5.9972 0.807983C6.34941 0.422183 6.79816 0.159449 7.2867 0.0530074C7.77523 -0.0534346 8.28161 0.00119526 8.7418 0.209989C9.20199 0.418782 9.59532 0.772361 9.87206 1.22601C10.1488 1.67967 10.2965 2.21302 10.2965 2.75862C10.2945 3.48958 10.0285 4.18998 9.55665 4.70685C9.08478 5.22372 8.44535 5.51506 7.77802 5.51724V5.51724ZM7.77802 1.37931C7.52897 1.37931 7.28551 1.46021 7.07843 1.61177C6.87135 1.76333 6.70995 1.97875 6.61464 2.23078C6.51933 2.48282 6.4944 2.76015 6.54298 3.02771C6.59157 3.29527 6.7115 3.54104 6.88761 3.73394C7.06372 3.92684 7.28809 4.05821 7.53236 4.11143C7.77663 4.16465 8.02982 4.13734 8.25991 4.03294C8.49001 3.92854 8.68667 3.75175 8.82504 3.52493C8.96341 3.2981 9.03726 3.03142 9.03726 2.75862C9.03626 2.39314 8.90327 2.04294 8.66734 1.78451C8.4314 1.52607 8.11169 1.3804 7.77802 1.37931V1.37931Z" />
<path d="M9.03614 19.5C9.03597 19.5 9.0358 19.5 9.03562 19.5H6.52042C6.52025 19.5 6.52008 19.5 6.51991 19.5C6.33386 19.4992 6.14538 19.4183 5.99874 19.2577C5.85071 19.0955 5.76037 18.867 5.75955 18.6199V13.7931V13.2947L5.26119 13.2931C5.07498 13.2925 4.88628 13.2116 4.7395 13.0508C4.59148 12.8887 4.50114 12.6601 4.50032 12.413V8.27586H4.50039L4.50025 8.26742C4.49666 8.05538 4.53222 7.84557 4.60389 7.65097C4.67555 7.45639 4.78125 7.28255 4.91253 7.13874C5.04373 6.99504 5.19741 6.88461 5.36301 6.81143C5.52843 6.73834 5.70376 6.70324 5.87904 6.70679L5.87904 6.7069H5.88917H9.66688V6.707L9.67701 6.70679C9.85229 6.70324 10.0276 6.73834 10.193 6.81143C10.3586 6.88461 10.5123 6.99504 10.6435 7.13874C10.7748 7.28255 10.8805 7.45639 10.9522 7.65097C11.0238 7.84557 11.0594 8.05538 11.0558 8.26742L11.0557 8.26742V8.27586V12.4131C11.0549 12.6601 10.9646 12.8887 10.8165 13.0508C10.6698 13.2116 10.4811 13.2925 10.2949 13.2931L9.7965 13.2947V13.7931V18.62C9.79567 18.867 9.70533 19.0956 9.55731 19.2577C9.41067 19.4183 9.22219 19.4992 9.03614 19.5ZM6.01879 12.9138V18.6207V19.1207H6.51879H9.03726H9.53726V18.6207V12.9138H10.2965H10.7965V12.4138V8.28776C10.8028 8.13673 10.781 7.98514 10.7313 7.84187C10.68 7.69365 10.5994 7.55587 10.4926 7.4388C10.3856 7.32162 10.2542 7.2275 10.1056 7.16572C9.96258 7.10629 9.8084 7.07883 9.65309 7.08621H5.90296C5.74765 7.07883 5.59347 7.10629 5.45047 7.16572C5.30184 7.2275 5.17047 7.32162 5.06349 7.4388C4.95661 7.55587 4.87608 7.69366 4.82473 7.84187C4.7751 7.98514 4.7532 8.13673 4.75955 8.28776V12.4138V12.9138H5.25955H6.01879ZM9.53726 2.75862L9.53726 2.75726C9.53594 2.27357 9.36033 1.80199 9.0366 1.44739C8.7115 1.0913 8.26078 0.880888 7.77966 0.879314L7.77802 1.37928V0.879312C7.41938 0.879312 7.07311 0.996053 6.78313 1.20829C6.49382 1.42003 6.27475 1.71601 6.14696 2.05393C6.01925 2.39167 5.98639 2.76107 6.05103 3.11705C6.11569 3.4731 6.27618 3.8058 6.51835 4.07106C6.76095 4.33678 7.07576 4.52368 7.42592 4.59997C7.77659 4.67637 8.13949 4.63663 8.4665 4.48826C8.79275 4.34024 9.06415 4.09307 9.25189 3.78531C9.43943 3.47788 9.53726 3.12071 9.53726 2.75862ZM14.5742 8.77586H17.9815V9.15517H14.5742V8.77586ZM14.5742 5.32759H20.5V5.7069H14.5742V5.32759ZM14.5742 1.87931H20.5V2.25862H14.5742V1.87931ZM7.77714 5.01724C7.38892 5.01705 7.00515 4.89111 6.67414 4.64885C6.34221 4.40591 6.07708 4.05564 5.91894 3.63745C5.76073 3.21908 5.71878 2.75648 5.7999 2.30978C5.88101 1.86315 6.0803 1.45854 6.36646 1.1451C6.65218 0.832126 7.01049 0.624917 7.39314 0.541546C7.77527 0.458287 8.17194 0.500493 8.53522 0.665315C8.89925 0.830481 9.21784 1.11368 9.44521 1.4864C9.67266 1.85927 9.79638 2.30187 9.7965 2.75796C9.79466 3.37045 9.57133 3.94919 9.18739 4.36973C8.80486 4.78874 8.29675 5.01533 7.77714 5.01724Z" />
</g>
</svg>
